G04 Layer: TopLayer*
G04 EasyEDA v6.5.46, 2024-09-10 08:03:58*
G04 af1b8a7c484440538f14c005446abc36,9b85eb602bcd4fba98acf6d4d33434af,10*
G04 Gerber Generator version 0.2*
G04 Scale: 100 percent, Rotated: No, Reflected: No *
G04 Dimensions in millimeters *
G04 leading zeros omitted , absolute positions ,4 integer and 5 decimal *
%FSLAX45Y45*%
%MOMM*%

%ADD10C,0.5000*%
%ADD11R,0.4000X0.8160*%
%ADD12R,1.1901X1.7280*%
%ADD13C,1.6000*%
%ADD14C,2.0000*%
%ADD15C,0.6200*%
%ADD16C,0.0174*%

%LPD*%
G36*
X290068Y-990092D02*
G01*
X286156Y-989330D01*
X282905Y-987094D01*
X280670Y-983843D01*
X279908Y-979932D01*
X279908Y-855116D01*
X280670Y-851255D01*
X282905Y-847953D01*
X286156Y-845718D01*
X290068Y-844956D01*
X293979Y-845718D01*
X297230Y-847953D01*
X301548Y-852220D01*
X313486Y-861568D01*
X326491Y-869442D01*
X328676Y-870407D01*
X328676Y-814324D01*
X290068Y-814324D01*
X286156Y-813562D01*
X282905Y-811377D01*
X280670Y-808075D01*
X279908Y-804164D01*
X279908Y-711809D01*
X280670Y-707898D01*
X282905Y-704596D01*
X286156Y-702411D01*
X290068Y-701649D01*
X328676Y-701649D01*
X328676Y-645566D01*
X326491Y-646531D01*
X313486Y-654405D01*
X301548Y-663752D01*
X297230Y-668020D01*
X293979Y-670255D01*
X290068Y-671017D01*
X286156Y-670255D01*
X282905Y-668020D01*
X280670Y-664718D01*
X279908Y-660857D01*
X279908Y-355142D01*
X280670Y-351231D01*
X282905Y-347929D01*
X286156Y-345744D01*
X290068Y-344982D01*
X293979Y-345744D01*
X297230Y-347929D01*
X301548Y-352196D01*
X313486Y-361594D01*
X326491Y-369468D01*
X328676Y-370433D01*
X328676Y-314350D01*
X290068Y-314350D01*
X286156Y-313588D01*
X282905Y-311353D01*
X280670Y-308051D01*
X279908Y-304190D01*
X279908Y-211785D01*
X280670Y-207924D01*
X282905Y-204622D01*
X286156Y-202387D01*
X290068Y-201625D01*
X328676Y-201625D01*
X328676Y-145542D01*
X326491Y-146507D01*
X313486Y-154381D01*
X301548Y-163779D01*
X297230Y-168046D01*
X293979Y-170230D01*
X290068Y-170992D01*
X286156Y-170230D01*
X282905Y-168046D01*
X280670Y-164744D01*
X279908Y-160832D01*
X279908Y-36068D01*
X280670Y-32156D01*
X282905Y-28905D01*
X286156Y-26670D01*
X290068Y-25908D01*
X2554732Y-25908D01*
X2558643Y-26670D01*
X2561894Y-28905D01*
X2564130Y-32156D01*
X2564892Y-36068D01*
X2564892Y-160883D01*
X2564130Y-164744D01*
X2561894Y-168046D01*
X2558643Y-170281D01*
X2554732Y-171043D01*
X2550820Y-170281D01*
X2547569Y-168046D01*
X2543251Y-163779D01*
X2531313Y-154432D01*
X2518308Y-146558D01*
X2516124Y-145592D01*
X2516124Y-201676D01*
X2554732Y-201676D01*
X2558643Y-202438D01*
X2561894Y-204622D01*
X2564130Y-207924D01*
X2564892Y-211836D01*
X2564892Y-304190D01*
X2564130Y-308102D01*
X2561894Y-311404D01*
X2558643Y-313588D01*
X2554732Y-314350D01*
X2516124Y-314350D01*
X2516124Y-370433D01*
X2518308Y-369468D01*
X2531313Y-361594D01*
X2543251Y-352247D01*
X2547569Y-347980D01*
X2550820Y-345744D01*
X2554732Y-344982D01*
X2558643Y-345744D01*
X2561894Y-347980D01*
X2564130Y-351282D01*
X2564892Y-355142D01*
X2564892Y-660857D01*
X2564130Y-664768D01*
X2561894Y-668070D01*
X2558643Y-670255D01*
X2554732Y-671017D01*
X2550820Y-670255D01*
X2547569Y-668070D01*
X2543251Y-663803D01*
X2531313Y-654405D01*
X2518308Y-646531D01*
X2516124Y-645566D01*
X2516124Y-701649D01*
X2554732Y-701649D01*
X2558643Y-702411D01*
X2561894Y-704646D01*
X2564130Y-707948D01*
X2564892Y-711809D01*
X2564892Y-804214D01*
X2564130Y-808075D01*
X2561894Y-811377D01*
X2558643Y-813612D01*
X2554732Y-814374D01*
X2516124Y-814374D01*
X2516124Y-870458D01*
X2518308Y-869492D01*
X2531313Y-861618D01*
X2543251Y-852220D01*
X2547569Y-847953D01*
X2550820Y-845769D01*
X2554732Y-845007D01*
X2558643Y-845769D01*
X2561894Y-847953D01*
X2564130Y-851255D01*
X2564892Y-855167D01*
X2564892Y-979932D01*
X2564130Y-983843D01*
X2561894Y-987094D01*
X2558643Y-989330D01*
X2554732Y-990092D01*
G37*

%LPC*%
G36*
X1903425Y-870458D02*
G01*
X1903425Y-814374D01*
X1847342Y-814374D01*
X1848307Y-816508D01*
X1856181Y-829513D01*
X1865579Y-841502D01*
X1876298Y-852220D01*
X1888286Y-861618D01*
X1901291Y-869492D01*
G37*
G36*
X2403449Y-870458D02*
G01*
X2403449Y-814374D01*
X2347366Y-814374D01*
X2348331Y-816508D01*
X2356205Y-829513D01*
X2365552Y-841502D01*
X2376322Y-852220D01*
X2388260Y-861618D01*
X2401265Y-869492D01*
G37*
G36*
X2016150Y-870458D02*
G01*
X2018284Y-869492D01*
X2031288Y-861618D01*
X2043277Y-852220D01*
X2053996Y-841502D01*
X2063394Y-829513D01*
X2071268Y-816508D01*
X2072233Y-814374D01*
X2016150Y-814374D01*
G37*
G36*
X828649Y-870407D02*
G01*
X828649Y-814324D01*
X772566Y-814324D01*
X773531Y-816508D01*
X781405Y-829513D01*
X790803Y-841451D01*
X801522Y-852220D01*
X813511Y-861568D01*
X826516Y-869442D01*
G37*
G36*
X441350Y-870407D02*
G01*
X443534Y-869442D01*
X456539Y-861568D01*
X468477Y-852220D01*
X479247Y-841451D01*
X488594Y-829513D01*
X496468Y-816508D01*
X497433Y-814324D01*
X441350Y-814324D01*
G37*
G36*
X941374Y-870407D02*
G01*
X943508Y-869442D01*
X956513Y-861568D01*
X968502Y-852220D01*
X979220Y-841451D01*
X988618Y-829513D01*
X996492Y-816508D01*
X997458Y-814324D01*
X941374Y-814324D01*
G37*
G36*
X1704644Y-703224D02*
G01*
X1707743Y-703224D01*
X1714042Y-702513D01*
X1719529Y-700582D01*
X1724406Y-697484D01*
X1728520Y-693420D01*
X1731619Y-688492D01*
X1733499Y-683056D01*
X1734210Y-676706D01*
X1734210Y-663244D01*
X1704644Y-663244D01*
G37*
G36*
X1568907Y-703224D02*
G01*
X1571955Y-703224D01*
X1571955Y-663244D01*
X1542389Y-663244D01*
X1542389Y-676706D01*
X1543100Y-683056D01*
X1545031Y-688492D01*
X1548130Y-693420D01*
X1552194Y-697484D01*
X1557121Y-700582D01*
X1562557Y-702513D01*
G37*
G36*
X1604670Y-703224D02*
G01*
X1607718Y-703224D01*
X1614068Y-702513D01*
X1619504Y-700582D01*
X1624431Y-697484D01*
X1628495Y-693420D01*
X1629714Y-691489D01*
X1632508Y-688543D01*
X1636268Y-686968D01*
X1640332Y-686968D01*
X1644091Y-688543D01*
X1646936Y-691489D01*
X1648104Y-693420D01*
X1652219Y-697484D01*
X1657096Y-700582D01*
X1662582Y-702513D01*
X1668881Y-703224D01*
X1671980Y-703224D01*
X1671980Y-663244D01*
X1604670Y-663244D01*
G37*
G36*
X2016150Y-701649D02*
G01*
X2072233Y-701649D01*
X2071268Y-699516D01*
X2063394Y-686511D01*
X2053996Y-674522D01*
X2043277Y-663803D01*
X2031288Y-654405D01*
X2018284Y-646531D01*
X2016150Y-645566D01*
G37*
G36*
X1847342Y-701649D02*
G01*
X1903425Y-701649D01*
X1903425Y-645566D01*
X1901291Y-646531D01*
X1888286Y-654405D01*
X1876298Y-663803D01*
X1865579Y-674522D01*
X1856181Y-686511D01*
X1848307Y-699516D01*
G37*
G36*
X2347366Y-701649D02*
G01*
X2403449Y-701649D01*
X2403449Y-645566D01*
X2401265Y-646531D01*
X2388260Y-654405D01*
X2376322Y-663803D01*
X2365552Y-674522D01*
X2356205Y-686511D01*
X2348331Y-699516D01*
G37*
G36*
X941374Y-701649D02*
G01*
X997458Y-701649D01*
X996492Y-699465D01*
X988618Y-686460D01*
X979220Y-674522D01*
X968502Y-663752D01*
X956513Y-654405D01*
X943508Y-646531D01*
X941374Y-645566D01*
G37*
G36*
X441350Y-701649D02*
G01*
X497433Y-701649D01*
X496468Y-699465D01*
X488594Y-686460D01*
X479247Y-674522D01*
X468477Y-663752D01*
X456539Y-654405D01*
X443534Y-646531D01*
X441350Y-645566D01*
G37*
G36*
X772566Y-701649D02*
G01*
X828649Y-701649D01*
X828649Y-645566D01*
X826516Y-646531D01*
X813511Y-654405D01*
X801522Y-663752D01*
X790803Y-674522D01*
X781405Y-686460D01*
X773531Y-699465D01*
G37*
G36*
X1015746Y-620318D02*
G01*
X1133652Y-620318D01*
X1139952Y-619607D01*
X1145387Y-617677D01*
X1150315Y-614629D01*
X1154379Y-610514D01*
X1157478Y-605637D01*
X1159408Y-600151D01*
X1160119Y-593852D01*
X1160119Y-422148D01*
X1159408Y-415848D01*
X1157478Y-410362D01*
X1154379Y-405485D01*
X1150315Y-401370D01*
X1145387Y-398322D01*
X1139952Y-396392D01*
X1133652Y-395681D01*
X1015746Y-395681D01*
X1009446Y-396392D01*
X1003960Y-398322D01*
X999083Y-401370D01*
X994968Y-405485D01*
X991920Y-410362D01*
X989990Y-415848D01*
X989279Y-422148D01*
X989279Y-446938D01*
X988517Y-450799D01*
X986282Y-454101D01*
X983030Y-456336D01*
X979119Y-457098D01*
X733501Y-457098D01*
X730250Y-456539D01*
X727303Y-454964D01*
X725068Y-452577D01*
X719023Y-443534D01*
X709879Y-433120D01*
X699465Y-423976D01*
X687933Y-416306D01*
X675538Y-410159D01*
X662432Y-405688D01*
X648817Y-402996D01*
X635000Y-402082D01*
X621182Y-402996D01*
X607618Y-405688D01*
X594512Y-410159D01*
X582066Y-416306D01*
X570534Y-423976D01*
X560120Y-433120D01*
X551027Y-443534D01*
X543306Y-455066D01*
X537210Y-467461D01*
X532739Y-480568D01*
X530047Y-494182D01*
X529132Y-508000D01*
X530047Y-521817D01*
X532739Y-535381D01*
X537210Y-548487D01*
X543306Y-560933D01*
X551027Y-572465D01*
X560120Y-582879D01*
X570534Y-591972D01*
X582066Y-599694D01*
X594512Y-605790D01*
X607618Y-610260D01*
X621182Y-612952D01*
X635000Y-613867D01*
X648817Y-612952D01*
X662432Y-610260D01*
X675538Y-605790D01*
X687933Y-599694D01*
X699465Y-591972D01*
X709879Y-582879D01*
X719023Y-572465D01*
X725068Y-563422D01*
X727303Y-560984D01*
X730250Y-559460D01*
X733501Y-558901D01*
X979119Y-558901D01*
X983030Y-559663D01*
X986282Y-561898D01*
X988517Y-565200D01*
X989279Y-569061D01*
X989279Y-593852D01*
X989990Y-600151D01*
X991920Y-605637D01*
X994968Y-610514D01*
X999083Y-614629D01*
X1003960Y-617677D01*
X1009446Y-619607D01*
G37*
G36*
X1304747Y-620318D02*
G01*
X1422654Y-620318D01*
X1428953Y-619607D01*
X1434439Y-617677D01*
X1439316Y-614629D01*
X1443431Y-610514D01*
X1446479Y-605637D01*
X1448409Y-600151D01*
X1449120Y-593852D01*
X1449120Y-568553D01*
X1449882Y-564642D01*
X1452067Y-561390D01*
X1455369Y-559155D01*
X1459230Y-558393D01*
X1545183Y-557885D01*
X1549095Y-558647D01*
X1552397Y-560832D01*
X1554632Y-564134D01*
X1555394Y-568045D01*
X1554632Y-571957D01*
X1552448Y-575259D01*
X1548130Y-579577D01*
X1545031Y-584504D01*
X1543100Y-589940D01*
X1542389Y-596239D01*
X1542389Y-609752D01*
X1571955Y-609752D01*
X1571955Y-567842D01*
X1572717Y-563981D01*
X1574901Y-560679D01*
X1578203Y-558495D01*
X1582064Y-557682D01*
X1588820Y-557682D01*
X1592173Y-558241D01*
X1595170Y-559866D01*
X1598117Y-563422D01*
X1601673Y-566978D01*
X1603908Y-570280D01*
X1604670Y-574192D01*
X1604670Y-609752D01*
X1671980Y-609752D01*
X1671980Y-574192D01*
X1672742Y-570280D01*
X1674926Y-566978D01*
X1678533Y-563422D01*
X1681530Y-559714D01*
X1684528Y-558088D01*
X1687880Y-557530D01*
X1694535Y-557530D01*
X1698396Y-558292D01*
X1701698Y-560527D01*
X1703882Y-563829D01*
X1704644Y-567690D01*
X1704644Y-609752D01*
X1734210Y-609752D01*
X1734210Y-596239D01*
X1733499Y-589940D01*
X1731619Y-584504D01*
X1728520Y-579577D01*
X1723898Y-574954D01*
X1721713Y-571652D01*
X1720951Y-567791D01*
X1721713Y-563880D01*
X1723948Y-560578D01*
X1727250Y-558393D01*
X1731111Y-557631D01*
X2111146Y-558647D01*
X2114397Y-559206D01*
X2117293Y-560730D01*
X2119579Y-563168D01*
X2125776Y-572465D01*
X2134920Y-582879D01*
X2145334Y-592023D01*
X2156866Y-599694D01*
X2169261Y-605840D01*
X2182368Y-610311D01*
X2195982Y-613003D01*
X2209800Y-613918D01*
X2223617Y-613003D01*
X2237181Y-610311D01*
X2250287Y-605840D01*
X2262733Y-599694D01*
X2274265Y-592023D01*
X2284679Y-582879D01*
X2293772Y-572465D01*
X2301494Y-560933D01*
X2307590Y-548538D01*
X2312060Y-535432D01*
X2314752Y-521817D01*
X2315667Y-508000D01*
X2314752Y-494182D01*
X2312060Y-480618D01*
X2307590Y-467512D01*
X2301494Y-455066D01*
X2293772Y-443534D01*
X2284679Y-433120D01*
X2274265Y-424027D01*
X2262733Y-416306D01*
X2250287Y-410209D01*
X2237181Y-405739D01*
X2223617Y-403047D01*
X2209800Y-402132D01*
X2195982Y-403047D01*
X2182368Y-405739D01*
X2169261Y-410209D01*
X2156866Y-416306D01*
X2145334Y-424027D01*
X2134920Y-433120D01*
X2125776Y-443534D01*
X2119934Y-452323D01*
X2117648Y-454710D01*
X2114753Y-456285D01*
X2111451Y-456844D01*
X1687931Y-455676D01*
X1684578Y-455117D01*
X1681632Y-453491D01*
X1678533Y-449580D01*
X1674418Y-445516D01*
X1669542Y-442417D01*
X1664055Y-440486D01*
X1657756Y-439775D01*
X1618894Y-439775D01*
X1612544Y-440486D01*
X1607108Y-442417D01*
X1602181Y-445516D01*
X1598117Y-449580D01*
X1594916Y-453593D01*
X1591970Y-455269D01*
X1588617Y-455828D01*
X1459331Y-456539D01*
X1455420Y-455828D01*
X1452118Y-453593D01*
X1449882Y-450291D01*
X1449120Y-446379D01*
X1449120Y-422148D01*
X1448409Y-415848D01*
X1446479Y-410362D01*
X1443431Y-405485D01*
X1439316Y-401370D01*
X1434439Y-398322D01*
X1428953Y-396392D01*
X1422654Y-395681D01*
X1304747Y-395681D01*
X1298448Y-396392D01*
X1293012Y-398322D01*
X1288084Y-401370D01*
X1284020Y-405485D01*
X1280922Y-410362D01*
X1278991Y-415848D01*
X1278280Y-422148D01*
X1278280Y-593852D01*
X1278991Y-600151D01*
X1280922Y-605637D01*
X1284020Y-610514D01*
X1288084Y-614629D01*
X1293012Y-617677D01*
X1298448Y-619607D01*
G37*
G36*
X2016150Y-370433D02*
G01*
X2018284Y-369468D01*
X2031288Y-361594D01*
X2043277Y-352247D01*
X2053996Y-341477D01*
X2063394Y-329539D01*
X2071268Y-316534D01*
X2072233Y-314350D01*
X2016150Y-314350D01*
G37*
G36*
X2403449Y-370433D02*
G01*
X2403449Y-314350D01*
X2347366Y-314350D01*
X2348331Y-316534D01*
X2356205Y-329539D01*
X2365552Y-341477D01*
X2376322Y-352247D01*
X2388260Y-361594D01*
X2401265Y-369468D01*
G37*
G36*
X1903425Y-370433D02*
G01*
X1903425Y-314350D01*
X1847342Y-314350D01*
X1848307Y-316534D01*
X1856181Y-329539D01*
X1865579Y-341477D01*
X1876298Y-352247D01*
X1888286Y-361594D01*
X1901291Y-369468D01*
G37*
G36*
X941374Y-370433D02*
G01*
X943508Y-369468D01*
X956513Y-361594D01*
X968502Y-352196D01*
X979220Y-341477D01*
X988618Y-329488D01*
X996492Y-316484D01*
X997458Y-314350D01*
X941374Y-314350D01*
G37*
G36*
X441350Y-370433D02*
G01*
X443534Y-369468D01*
X456539Y-361594D01*
X468477Y-352196D01*
X479247Y-341477D01*
X488594Y-329488D01*
X496468Y-316484D01*
X497433Y-314350D01*
X441350Y-314350D01*
G37*
G36*
X828649Y-370433D02*
G01*
X828649Y-314350D01*
X772566Y-314350D01*
X773531Y-316484D01*
X781405Y-329488D01*
X790803Y-341477D01*
X801522Y-352196D01*
X813511Y-361594D01*
X826516Y-369468D01*
G37*
G36*
X2016150Y-201676D02*
G01*
X2072233Y-201676D01*
X2071268Y-199491D01*
X2063394Y-186486D01*
X2053996Y-174548D01*
X2043277Y-163779D01*
X2031288Y-154432D01*
X2018284Y-146558D01*
X2016150Y-145592D01*
G37*
G36*
X1847342Y-201676D02*
G01*
X1903425Y-201676D01*
X1903425Y-145592D01*
X1901291Y-146558D01*
X1888286Y-154432D01*
X1876298Y-163779D01*
X1865579Y-174548D01*
X1856181Y-186486D01*
X1848307Y-199491D01*
G37*
G36*
X2347366Y-201676D02*
G01*
X2403449Y-201676D01*
X2403449Y-145592D01*
X2401265Y-146558D01*
X2388260Y-154432D01*
X2376322Y-163779D01*
X2365552Y-174548D01*
X2356205Y-186486D01*
X2348331Y-199491D01*
G37*
G36*
X441350Y-201625D02*
G01*
X497433Y-201625D01*
X496468Y-199491D01*
X488594Y-186486D01*
X479247Y-174498D01*
X468477Y-163779D01*
X456539Y-154381D01*
X443534Y-146507D01*
X441350Y-145542D01*
G37*
G36*
X941374Y-201625D02*
G01*
X997458Y-201625D01*
X996492Y-199491D01*
X988618Y-186486D01*
X979220Y-174498D01*
X968502Y-163779D01*
X956513Y-154381D01*
X943508Y-146507D01*
X941374Y-145542D01*
G37*
G36*
X772566Y-201625D02*
G01*
X828649Y-201625D01*
X828649Y-145542D01*
X826516Y-146507D01*
X813511Y-154381D01*
X801522Y-163779D01*
X790803Y-174498D01*
X781405Y-186486D01*
X773531Y-199491D01*
G37*

%LPD*%
D10*
X1638300Y-506476D02*
G01*
X2209800Y-508000D01*
X1363725Y-508000D02*
G01*
X1638300Y-506476D01*
X635012Y-507987D02*
G01*
X1074699Y-508000D01*
D11*
G01*
X1588312Y-636498D03*
G01*
X1688312Y-636498D03*
G01*
X1638325Y-506501D03*
D12*
G01*
X1074699Y-508000D03*
G01*
X1363700Y-508000D03*
D13*
G01*
X635012Y-507987D03*
D14*
G01*
X884999Y-258000D03*
G01*
X385000Y-258000D03*
G01*
X385000Y-757999D03*
G01*
X884999Y-757999D03*
D13*
G01*
X2209787Y-508012D03*
D14*
G01*
X1959800Y-757999D03*
G01*
X2459799Y-757999D03*
G01*
X2459799Y-258000D03*
G01*
X1959800Y-258000D03*
D15*
G01*
X1536700Y-101600D03*
G01*
X1524000Y-901700D03*
M02*
